<svg width="457" height="1137" viewBox="0 0 457 1137" fill="none" xmlns="http://www.w3.org/2000/svg">
<mask id="path-1-outside-1_176_475" maskUnits="userSpaceOnUse" x="-61.1219" y="437.688" width="67.7863" height="109.672" fill="black">
<rect fill="white" x="-61.1219" y="437.688" width="67.7863" height="109.672"/>
<path d="M-25.6423 542.787C-16.9136 540.888 -12.8969 534.232 -13.1023 528.513C-13.0229 522.769 -15.5064 517.246 -13.6941 511.64C-11.1992 503.967 -0.609064 497.032 -0.725761 489.011C-0.616074 476.954 -24.3412 471.251 -29.617 459.945C-31.3837 456.081 -31.1818 451.761 -33.4935 448.231C-36.09 444.726 -43.5021 441.921 -49.0007 444.689C-50.9203 445.715 -52.2214 447.261 -53.2623 448.498C-57.3034 454.87 -58.1146 462.111 -55.0129 468.154C-48.4022 481.64 -57.7608 496.214 -52.2155 510.653C-48.8443 519.828 -50.6894 548.384 -25.6423 542.787Z"/>
</mask>
<path d="M-25.6423 542.787C-16.9136 540.888 -12.8969 534.232 -13.1023 528.513C-13.0229 522.769 -15.5064 517.246 -13.6941 511.64C-11.1992 503.967 -0.609064 497.032 -0.725761 489.011C-0.616074 476.954 -24.3412 471.251 -29.617 459.945C-31.3837 456.081 -31.1818 451.761 -33.4935 448.231C-36.09 444.726 -43.5021 441.921 -49.0007 444.689C-50.9203 445.715 -52.2214 447.261 -53.2623 448.498C-57.3034 454.87 -58.1146 462.111 -55.0129 468.154C-48.4022 481.64 -57.7608 496.214 -52.2155 510.653C-48.8443 519.828 -50.6894 548.384 -25.6423 542.787Z" stroke="#0058E1" stroke-opacity="0.1" stroke-width="3.67939" stroke-miterlimit="10" mask="url(#path-1-outside-1_176_475)"/>
<mask id="path-2-outside-2_176_475" maskUnits="userSpaceOnUse" x="-94.4234" y="404.157" width="128.243" height="180.146" fill="black">
<rect fill="white" x="-94.4234" y="404.157" width="128.243" height="180.146"/>
<path d="M21.998 493.078C23.6235 488.635 24.1102 484.291 22.0097 479.882C17.475 470.52 2.88594 464.318 -6.76462 458.838C-14.918 454.09 -23.9254 449.415 -28.8336 442.379C-29.8103 441.029 -30.5021 439.655 -31.2186 437.995C-33.7019 432.472 -33.387 426.134 -37.8388 421.068C-42.6489 415.171 -57.0663 410.962 -67.592 415.31C-67.8767 415.335 -67.877 415.335 -68.1372 415.644C-71.7162 417.386 -74.1073 419.6 -75.9044 422.049C-82.6212 430.659 -85.1801 440.918 -81.4751 450.639C-81.0923 451.753 -81.0188 452.608 -81.2055 453.771C-81.4716 460.678 -87.4325 468.075 -87.1291 474.933C-86.4733 489.219 -79.0328 502.347 -76.9043 517.08C-75.9579 524.743 -73.5144 533.138 -71.5668 542.436C-70.5317 547.797 -76.3698 556.618 -74.1958 561.881C-69.4896 573.236 -53.3392 577.583 -39.7853 578.424C-35.1805 578.602 -30.3402 578.185 -25.264 577.174C-10.0355 574.143 0.23594 563.506 -0.606592 550.384C-1.10604 541.248 -3.52497 533.138 -0.485107 525.131C0.644485 521.592 2.93751 518.239 5.8 514.838C12.0209 507.131 19.1939 500.49 21.998 493.078Z"/>
</mask>
<path d="M21.998 493.078C23.6235 488.635 24.1102 484.291 22.0097 479.882C17.475 470.52 2.88594 464.318 -6.76462 458.838C-14.918 454.09 -23.9254 449.415 -28.8336 442.379C-29.8103 441.029 -30.5021 439.655 -31.2186 437.995C-33.7019 432.472 -33.387 426.134 -37.8388 421.068C-42.6489 415.171 -57.0663 410.962 -67.592 415.31C-67.8767 415.335 -67.877 415.335 -68.1372 415.644C-71.7162 417.386 -74.1073 419.6 -75.9044 422.049C-82.6212 430.659 -85.1801 440.918 -81.4751 450.639C-81.0923 451.753 -81.0188 452.608 -81.2055 453.771C-81.4716 460.678 -87.4325 468.075 -87.1291 474.933C-86.4733 489.219 -79.0328 502.347 -76.9043 517.08C-75.9579 524.743 -73.5144 533.138 -71.5668 542.436C-70.5317 547.797 -76.3698 556.618 -74.1958 561.881C-69.4896 573.236 -53.3392 577.583 -39.7853 578.424C-35.1805 578.602 -30.3402 578.185 -25.264 577.174C-10.0355 574.143 0.23594 563.506 -0.606592 550.384C-1.10604 541.248 -3.52497 533.138 -0.485107 525.131C0.644485 521.592 2.93751 518.239 5.8 514.838C12.0209 507.131 19.1939 500.49 21.998 493.078Z" stroke="#0058E1" stroke-opacity="0.1" stroke-width="3.67939" stroke-miterlimit="10" mask="url(#path-2-outside-2_176_475)"/>
<mask id="path-3-outside-3_176_475" maskUnits="userSpaceOnUse" x="-130.643" y="371.181" width="192.6" height="249.965" fill="black">
<rect fill="white" x="-130.643" y="371.181" width="192.6" height="249.965"/>
<path d="M44.695 496.862C47.9064 490.848 49.9298 484.364 47.3241 477.417C42.039 462.669 18.923 454.046 5.11469 446.916C-6.60251 440.753 -20.3618 434.193 -28.6715 424.295C-30.2667 422.424 -31.6016 420.244 -32.6273 418.325C-36.7792 410.077 -36.1154 401.128 -42.7809 393.67C-49.8047 385.382 -71.2273 379.768 -86.471 385.956C-86.7557 385.981 -87.0403 386.005 -87.0158 386.29C-92.5389 388.773 -95.9954 391.939 -98.8579 395.341C-108.202 406.758 -112.72 420.915 -107.508 434.809C-107.101 436.208 -107.263 437.656 -107.71 439.129C-110.132 447.656 -122.73 457.919 -121.734 466.152C-119.474 485.749 -102.815 502.673 -101.669 522.653C-100.876 535.206 -96.6651 547.465 -93.7559 561.27C-92.24 568.884 -104.756 583.443 -101.841 590.65C-94.6511 607.528 -66.7531 611.724 -47.1463 612.905C-39.93 613.432 -32.2666 612.485 -24.6279 611.254C-2.89954 607.089 13.3664 592.781 12.1224 571.662C11.3534 559.394 8.4044 548.461 12.6474 537.77C14.5576 533.303 17.3222 528.762 21.2501 524.408C29.6018 514.797 39.4998 506.488 44.695 496.862Z"/>
</mask>
<path d="M44.695 496.862C47.9064 490.848 49.9298 484.364 47.3241 477.417C42.039 462.669 18.923 454.046 5.11469 446.916C-6.60251 440.753 -20.3618 434.193 -28.6715 424.295C-30.2667 422.424 -31.6016 420.244 -32.6273 418.325C-36.7792 410.077 -36.1154 401.128 -42.7809 393.67C-49.8047 385.382 -71.2273 379.768 -86.471 385.956C-86.7557 385.981 -87.0403 386.005 -87.0158 386.29C-92.5389 388.773 -95.9954 391.939 -98.8579 395.341C-108.202 406.758 -112.72 420.915 -107.508 434.809C-107.101 436.208 -107.263 437.656 -107.71 439.129C-110.132 447.656 -122.73 457.919 -121.734 466.152C-119.474 485.749 -102.815 502.673 -101.669 522.653C-100.876 535.206 -96.6651 547.465 -93.7559 561.27C-92.24 568.884 -104.756 583.443 -101.841 590.65C-94.6511 607.528 -66.7531 611.724 -47.1463 612.905C-39.93 613.432 -32.2666 612.485 -24.6279 611.254C-2.89954 607.089 13.3664 592.781 12.1224 571.662C11.3534 559.394 8.4044 548.461 12.6474 537.77C14.5576 533.303 17.3222 528.762 21.2501 524.408C29.6018 514.797 39.4998 506.488 44.695 496.862Z" stroke="#0058E1" stroke-opacity="0.1" stroke-width="3.67939" stroke-miterlimit="10" mask="url(#path-3-outside-3_176_475)"/>
<mask id="path-4-outside-4_176_475" maskUnits="userSpaceOnUse" x="-166.704" y="337.239" width="256.045" height="320.696" fill="black">
<rect fill="white" x="-166.704" y="337.239" width="256.045" height="320.696"/>
<path d="M67.3946 500.644C72.1919 493.061 75.7275 484.151 72.9502 475.211C66.6546 455.387 35.2723 444.033 17.5664 434.944C2.26083 427.082 -16.4861 419.23 -27.6525 406.136C-29.8661 403.745 -31.5347 401.02 -33.2034 398.295C-38.9996 387.607 -37.7266 375.737 -46.8906 365.913C-56.3883 355.543 -84.5313 348.499 -104.827 355.983C-105.111 356.008 -105.371 356.317 -105.656 356.341C-113.148 359.281 -117.93 363.708 -121.573 368.038C-133.804 382.572 -140.021 400.317 -133.328 418.099C-132.611 419.758 -133.294 421.825 -133.977 423.892C-138.529 434.323 -157.529 446.858 -156.102 456.775C-152.261 481.399 -126.928 502.453 -126.171 527.917C-125.53 545.359 -119.269 561.457 -115.373 580.053C-113.377 589.921 -132.594 609.933 -128.628 619.344C-119.24 641.77 -79.3103 645.791 -53.9353 647.336C-44.1319 647.927 -33.8816 647.045 -23.7293 645.024C4.49889 639.726 27.8983 621.649 24.8537 592.94C23.2212 577.304 20.6214 563.759 26.092 550.668C28.4737 545.013 32.019 539.544 37.2725 533.929C47.1856 522.463 59.8084 512.484 67.3946 500.644Z"/>
</mask>
<path d="M67.3946 500.644C72.1919 493.061 75.7275 484.151 72.9502 475.211C66.6546 455.387 35.2723 444.033 17.5664 434.944C2.26083 427.082 -16.4861 419.23 -27.6525 406.136C-29.8661 403.745 -31.5347 401.02 -33.2034 398.295C-38.9996 387.607 -37.7266 375.737 -46.8906 365.913C-56.3883 355.543 -84.5313 348.499 -104.827 355.983C-105.111 356.008 -105.371 356.317 -105.656 356.341C-113.148 359.281 -117.93 363.708 -121.573 368.038C-133.804 382.572 -140.021 400.317 -133.328 418.099C-132.611 419.758 -133.294 421.825 -133.977 423.892C-138.529 434.323 -157.529 446.858 -156.102 456.775C-152.261 481.399 -126.928 502.453 -126.171 527.917C-125.53 545.359 -119.269 561.457 -115.373 580.053C-113.377 589.921 -132.594 609.933 -128.628 619.344C-119.24 641.77 -79.3103 645.791 -53.9353 647.336C-44.1319 647.927 -33.8816 647.045 -23.7293 645.024C4.49889 639.726 27.8983 621.649 24.8537 592.94C23.2212 577.304 20.6214 563.759 26.092 550.668C28.4737 545.013 32.019 539.544 37.2725 533.929C47.1856 522.463 59.8084 512.484 67.3946 500.644Z" stroke="#0058E1" stroke-opacity="0.1" stroke-width="3.67939" stroke-miterlimit="10" mask="url(#path-4-outside-4_176_475)"/>
<mask id="path-5-outside-5_176_475" maskUnits="userSpaceOnUse" x="-203.013" y="303.755" width="321.484" height="391.598" fill="black">
<rect fill="white" x="-203.013" y="303.755" width="321.484" height="391.598"/>
<path d="M90.0938 504.428C96.4769 495.274 101.55 484.224 98.2671 472.746C91.2457 447.821 51.0273 433.786 29.4483 423.022C10.5789 413.746 -12.9198 404.008 -27.1786 388.311C-30.0108 385.4 -32.2978 382.154 -34.3248 378.6C-42.0499 365.496 -40.1678 350.706 -51.5454 338.49C-63.2568 325.73 -98.1199 317.257 -123.703 326.629C-123.987 326.654 -124.248 326.963 -124.817 327.012C-134.253 330.693 -140.101 336.072 -144.524 341.329C-159.667 358.696 -167.559 380.314 -159.359 402.269C-158.593 404.498 -159.276 406.565 -160.479 409.25C-166.877 421.561 -192.824 436.702 -190.68 448.278C-185.235 478.214 -150.968 503.089 -150.884 534.06C-150.657 556.701 -142.058 576.614 -137.511 599.457C-135.033 611.578 -160.952 637.042 -156.222 648.682C-144.635 676.656 -92.6971 680.218 -61.2447 682.387C-48.8297 683.326 -36.0411 681.939 -23.3262 679.697C11.6865 673.242 41.6253 651.16 37.3497 614.812C35.1383 595.784 32.6025 579.652 39.016 564.185C41.8691 557.342 46.1951 550.946 52.4895 544.094C64.7692 530.129 80.1165 518.482 90.0938 504.428Z"/>
</mask>
<path d="M90.0938 504.428C96.4769 495.274 101.55 484.224 98.2671 472.746C91.2457 447.821 51.0273 433.786 29.4483 423.022C10.5789 413.746 -12.9198 404.008 -27.1786 388.311C-30.0108 385.4 -32.2978 382.154 -34.3248 378.6C-42.0499 365.496 -40.1678 350.706 -51.5454 338.49C-63.2568 325.73 -98.1199 317.257 -123.703 326.629C-123.987 326.654 -124.248 326.963 -124.817 327.012C-134.253 330.693 -140.101 336.072 -144.524 341.329C-159.667 358.696 -167.559 380.314 -159.359 402.269C-158.593 404.498 -159.276 406.565 -160.479 409.25C-166.877 421.561 -192.824 436.702 -190.68 448.278C-185.235 478.214 -150.968 503.089 -150.884 534.06C-150.657 556.701 -142.058 576.614 -137.511 599.457C-135.033 611.578 -160.952 637.042 -156.222 648.682C-144.635 676.656 -92.6971 680.218 -61.2447 682.387C-48.8297 683.326 -36.0411 681.939 -23.3262 679.697C11.6865 673.242 41.6253 651.16 37.3497 614.812C35.1383 595.784 32.6025 579.652 39.016 564.185C41.8691 557.342 46.1951 550.946 52.4895 544.094C64.7692 530.129 80.1165 518.482 90.0938 504.428Z" stroke="#0058E1" stroke-opacity="0.1" stroke-width="3.67939" stroke-miterlimit="10" mask="url(#path-5-outside-5_176_475)"/>
<mask id="path-6-outside-6_176_475" maskUnits="userSpaceOnUse" x="-239.302" y="270.641" width="385.84" height="461.417" fill="black">
<rect fill="white" x="-239.302" y="270.641" width="385.84" height="461.417"/>
<path d="M112.795 508.211C121.024 497.177 127.349 484.011 123.895 470.54C115.838 440.255 67.3775 423.773 41.6408 411.359C19.1831 400.384 -9.30288 389.354 -26.7031 370.486C-29.869 367.03 -32.7746 363.264 -35.1353 359.164C-44.5046 343.621 -42.0133 325.909 -55.9139 311.042C-69.8144 296.176 -111.707 286.013 -142.293 297.25C-142.577 297.275 -143.122 297.609 -143.407 297.633C-154.787 302.055 -161.7 308.386 -167.189 314.596C-184.958 334.77 -194.785 360.571 -185.103 386.414C-184.313 388.927 -184.946 391.563 -186.979 394.607C-195.533 408.537 -228.142 426.26 -225.282 439.495C-217.948 474.719 -175.316 503.463 -175.36 539.609C-175.57 567.164 -164.921 590.915 -159.102 618.525C-156.144 632.899 -188.765 663.817 -183.268 677.686C-169.199 711.183 -105.513 714.594 -68.3171 716.843C-53.3149 717.846 -37.9639 716.238 -22.7109 713.491C18.8016 705.903 55.3045 680.101 49.7977 636.114C47.0075 613.694 44.5359 594.975 52.1525 576.822C55.5016 569.076 60.5838 561.468 67.9436 553.663C82.6388 537.77 100.426 524.478 112.795 508.211Z"/>
</mask>
<path d="M112.795 508.211C121.024 497.177 127.349 484.011 123.895 470.54C115.838 440.255 67.3775 423.773 41.6408 411.359C19.1831 400.384 -9.30288 389.354 -26.7031 370.486C-29.869 367.03 -32.7746 363.264 -35.1353 359.164C-44.5046 343.621 -42.0133 325.909 -55.9139 311.042C-69.8144 296.176 -111.707 286.013 -142.293 297.25C-142.577 297.275 -143.122 297.609 -143.407 297.633C-154.787 302.055 -161.7 308.386 -167.189 314.596C-184.958 334.77 -194.785 360.571 -185.103 386.414C-184.313 388.927 -184.946 391.563 -186.979 394.607C-195.533 408.537 -228.142 426.26 -225.282 439.495C-217.948 474.719 -175.316 503.463 -175.36 539.609C-175.57 567.164 -164.921 590.915 -159.102 618.525C-156.144 632.899 -188.765 663.817 -183.268 677.686C-169.199 711.183 -105.513 714.594 -68.3171 716.843C-53.3149 717.846 -37.9639 716.238 -22.7109 713.491C18.8016 705.903 55.3045 680.101 49.7977 636.114C47.0075 613.694 44.5359 594.975 52.1525 576.822C55.5016 569.076 60.5838 561.468 67.9436 553.663C82.6388 537.77 100.426 524.478 112.795 508.211Z" stroke="#0058E1" stroke-opacity="0.1" stroke-width="3.67939" stroke-miterlimit="10" mask="url(#path-6-outside-6_176_475)"/>
<mask id="path-7-outside-7_176_475" maskUnits="userSpaceOnUse" x="-275.6" y="236.995" width="450.197" height="531.237" fill="black">
<rect fill="white" x="-275.6" y="236.995" width="450.197" height="531.237"/>
<path d="M135.493 511.994C145.308 499.389 153.454 484.059 149.495 468.05C140.713 432.664 83.7006 413.476 54.0908 399.388C27.7845 387.023 -5.16828 374.083 -25.6853 352.327C-29.4697 348.35 -33.0186 343.78 -35.7131 339.135C-46.7511 320.867 -43.9351 300.259 -60.0248 283.286C-76.1391 266.028 -125.037 254.46 -160.65 267.278C-161.219 267.327 -161.479 267.636 -162.049 267.685C-175.373 272.847 -183.351 280.131 -189.906 287.293C-210.562 310.584 -222.088 339.973 -210.924 369.704C-209.824 372.478 -210.979 375.733 -213.272 379.085C-223.956 394.921 -262.942 415.2 -259.959 429.859C-251.045 470.11 -199.455 502.959 -200.173 544.613C-200.82 577.082 -187.81 604.933 -181.339 636.789C-177.9 653.417 -217.507 689.812 -210.676 705.861C-194.408 744.905 -118.405 748.117 -75.4411 750.73C-57.8519 751.797 -39.6537 749.944 -22.1228 747.001C25.8896 738.279 68.9567 708.757 62.5035 657.107C59.1345 631.295 56.4424 610.013 65.2866 589.46C69.1072 580.526 74.9453 571.705 83.3705 562.949C100.197 545.151 121.018 530.451 135.493 511.994Z"/>
</mask>
<path d="M135.493 511.994C145.308 499.389 153.454 484.059 149.495 468.05C140.713 432.664 83.7006 413.476 54.0908 399.388C27.7845 387.023 -5.16828 374.083 -25.6853 352.327C-29.4697 348.35 -33.0186 343.78 -35.7131 339.135C-46.7511 320.867 -43.9351 300.259 -60.0248 283.286C-76.1391 266.028 -125.037 254.46 -160.65 267.278C-161.219 267.327 -161.479 267.636 -162.049 267.685C-175.373 272.847 -183.351 280.131 -189.906 287.293C-210.562 310.584 -222.088 339.973 -210.924 369.704C-209.824 372.478 -210.979 375.733 -213.272 379.085C-223.956 394.921 -262.942 415.2 -259.959 429.859C-251.045 470.11 -199.455 502.959 -200.173 544.613C-200.82 577.082 -187.81 604.933 -181.339 636.789C-177.9 653.417 -217.507 689.812 -210.676 705.861C-194.408 744.905 -118.405 748.117 -75.4411 750.73C-57.8519 751.797 -39.6537 749.944 -22.1228 747.001C25.8896 738.279 68.9567 708.757 62.5035 657.107C59.1345 631.295 56.4424 610.013 65.2866 589.46C69.1072 580.526 74.9453 571.705 83.3705 562.949C100.197 545.151 121.018 530.451 135.493 511.994Z" stroke="#0058E1" stroke-opacity="0.1" stroke-width="3.67939" stroke-miterlimit="10" mask="url(#path-7-outside-7_176_475)"/>
<mask id="path-8-outside-8_176_475" maskUnits="userSpaceOnUse" x="-311.97" y="202.869" width="515.721" height="603.135" fill="black">
<rect fill="white" x="-311.97" y="202.869" width="515.721" height="603.135"/>
<path d="M158.191 515.778C169.592 501.602 179.251 483.847 174.835 465.869C165.302 425.097 99.7879 403.773 65.9958 387.75C36.1012 373.686 -1.57895 359.145 -25.2129 334.503C-29.6158 330.005 -33.4981 324.889 -36.8355 319.44C-49.5178 298.731 -46.093 275.202 -64.6811 255.863C-83.009 236.214 -138.912 223.241 -179.527 237.923C-180.072 238.257 -180.642 238.306 -181.187 238.64C-196.195 244.234 -205.498 252.78 -212.834 260.869C-236.116 286.967 -249.602 320.254 -236.931 354.158C-235.783 357.502 -236.912 361.041 -239.75 364.727C-252.256 382.727 -298.238 405.043 -294.515 421.646C-283.996 467.209 -223.756 503.903 -224.863 551.04C-225.948 588.423 -210.601 620.089 -203.145 656.737C-199.225 675.618 -245.509 717.751 -237.961 735.459C-219.21 780.027 -131.484 782.803 -82.7274 786.064C-62.5266 787.481 -41.7656 785.407 -21.4365 781.65C33.0758 771.795 82.9667 738.243 74.9977 678.979C71.3347 649.75 68.422 625.906 78.4938 602.952C82.7858 592.83 89.4047 583.082 98.8708 573.088C117.779 552.816 141.325 536.448 158.191 515.778Z"/>
</mask>
<path d="M158.191 515.778C169.592 501.602 179.251 483.847 174.835 465.869C165.302 425.097 99.7879 403.773 65.9958 387.75C36.1012 373.686 -1.57895 359.145 -25.2129 334.503C-29.6158 330.005 -33.4981 324.889 -36.8355 319.44C-49.5178 298.731 -46.093 275.202 -64.6811 255.863C-83.009 236.214 -138.912 223.241 -179.527 237.923C-180.072 238.257 -180.642 238.306 -181.187 238.64C-196.195 244.234 -205.498 252.78 -212.834 260.869C-236.116 286.967 -249.602 320.254 -236.931 354.158C-235.783 357.502 -236.912 361.041 -239.75 364.727C-252.256 382.727 -298.238 405.043 -294.515 421.646C-283.996 467.209 -223.756 503.903 -224.863 551.04C-225.948 588.423 -210.601 620.089 -203.145 656.737C-199.225 675.618 -245.509 717.751 -237.961 735.459C-219.21 780.027 -131.484 782.803 -82.7274 786.064C-62.5266 787.481 -41.7656 785.407 -21.4365 781.65C33.0758 771.795 82.9667 738.243 74.9977 678.979C71.3347 649.75 68.422 625.906 78.4938 602.952C82.7858 592.83 89.4047 583.082 98.8708 573.088C117.779 552.816 141.325 536.448 158.191 515.778Z" stroke="#0058E1" stroke-opacity="0.1" stroke-width="3.67939" stroke-miterlimit="10" mask="url(#path-8-outside-8_176_475)"/>
<mask id="path-9-outside-9_176_475" maskUnits="userSpaceOnUse" x="-348.258" y="169.755" width="580.077" height="672.955" fill="black">
<rect fill="white" x="-348.258" y="169.755" width="580.077" height="672.955"/>
<path d="M180.608 519.585C193.88 503.814 204.79 483.943 200.154 463.403C189.611 417.555 115.83 393.5 77.8803 375.827C44.4219 360.349 1.72969 344.231 -25.0211 316.702C-30.067 311.399 -34.5433 306.048 -38.2144 300.053C-52.5409 276.905 -48.7914 250.479 -69.3085 228.724C-90.1103 206.994 -152.474 192.282 -198.401 208.569C-198.946 208.903 -199.515 208.952 -200.06 209.286C-217.012 215.621 -227.382 225.119 -235.783 234.16C-261.977 263.091 -277.136 300.251 -262.959 338.328C-261.502 341.931 -263.176 345.804 -266.25 350.084C-280.887 369.989 -333.531 394.885 -329.115 412.863C-316.732 463.429 -247.818 504.253 -249.622 556.613C-251.145 598.91 -233.723 634.7 -225.329 675.57C-220.928 696.704 -273.914 744.29 -265.601 764.227C-244.651 814.343 -144.893 816.944 -90.0832 820.545C-67.2953 822.026 -43.9719 819.731 -21.1046 815.469C39.9074 804.481 96.3627 767.209 87.4472 700.282C83.2299 667.945 80.3567 641.229 91.3468 615.615C96.1348 604.589 103.51 593.628 114.326 582.658C135.65 560.457 161.636 542.444 180.608 519.585Z"/>
</mask>
<path d="M180.608 519.585C193.88 503.814 204.79 483.943 200.154 463.403C189.611 417.555 115.83 393.5 77.8803 375.827C44.4219 360.349 1.72969 344.231 -25.0211 316.702C-30.067 311.399 -34.5433 306.048 -38.2144 300.053C-52.5409 276.905 -48.7914 250.479 -69.3085 228.724C-90.1103 206.994 -152.474 192.282 -198.401 208.569C-198.946 208.903 -199.515 208.952 -200.06 209.286C-217.012 215.621 -227.382 225.119 -235.783 234.16C-261.977 263.091 -277.136 300.251 -262.959 338.328C-261.502 341.931 -263.176 345.804 -266.25 350.084C-280.887 369.989 -333.531 394.885 -329.115 412.863C-316.732 463.429 -247.818 504.253 -249.622 556.613C-251.145 598.91 -233.723 634.7 -225.329 675.57C-220.928 696.704 -273.914 744.29 -265.601 764.227C-244.651 814.343 -144.893 816.944 -90.0832 820.545C-67.2953 822.026 -43.9719 819.731 -21.1046 815.469C39.9074 804.481 96.3627 767.209 87.4472 700.282C83.2299 667.945 80.3567 641.229 91.3468 615.615C96.1348 604.589 103.51 593.628 114.326 582.658C135.65 560.457 161.636 542.444 180.608 519.585Z" stroke="#0058E1" stroke-opacity="0.1" stroke-width="3.67939" stroke-miterlimit="10" mask="url(#path-9-outside-9_176_475)"/>
<mask id="path-10-outside-10_176_475" maskUnits="userSpaceOnUse" x="-384.24" y="136.657" width="644.434" height="742.775" fill="black">
<rect fill="white" x="-384.24" y="136.657" width="644.434" height="742.775"/>
<path d="M203.307 523.369C218.164 506.027 230.588 483.731 225.495 461.222C214.201 409.989 131.894 383.513 90.0712 364.165C53.0245 346.988 5.60482 329.269 -24.2629 298.853C-29.9272 293.03 -34.7617 286.848 -39.0514 280.333C-55.0221 254.745 -50.6638 225.399 -73.6793 201.277C-96.6948 177.155 -166.063 161.039 -216.708 179.166C-217.253 179.5 -218.107 179.573 -218.652 179.907C-237.549 186.983 -249.268 197.458 -258.449 207.427C-287.531 239.474 -304.365 280.507 -288.73 322.188C-287.248 326.076 -288.874 330.519 -292.492 335.133C-309.26 356.942 -368.306 384.11 -363.458 403.772C-349.47 459.65 -271.907 504.319 -274.1 562.162C-276.036 609.658 -256.302 648.978 -246.922 694.639C-242.041 718.026 -301.728 771.066 -292.365 793.207C-269.216 848.87 -157.451 851.012 -96.8729 854.977C-71.4979 856.522 -45.6117 854.007 -20.1818 849.524C47.6148 837.378 110.349 796.411 100.463 721.535C95.6665 685.806 92.8577 656.503 105.076 628.489C110.335 616.275 118.491 604.387 130.348 592.179C153.233 568.123 181.944 548.441 203.307 523.369Z"/>
</mask>
<path d="M203.307 523.369C218.164 506.027 230.588 483.731 225.495 461.222C214.201 409.989 131.894 383.513 90.0712 364.165C53.0245 346.988 5.60482 329.269 -24.2629 298.853C-29.9272 293.03 -34.7617 286.848 -39.0514 280.333C-55.0221 254.745 -50.6638 225.399 -73.6793 201.277C-96.6948 177.155 -166.063 161.039 -216.708 179.166C-217.253 179.5 -218.107 179.573 -218.652 179.907C-237.549 186.983 -249.268 197.458 -258.449 207.427C-287.531 239.474 -304.365 280.507 -288.73 322.188C-287.248 326.076 -288.874 330.519 -292.492 335.133C-309.26 356.942 -368.306 384.11 -363.458 403.772C-349.47 459.65 -271.907 504.319 -274.1 562.162C-276.036 609.658 -256.302 648.978 -246.922 694.639C-242.041 718.026 -301.728 771.066 -292.365 793.207C-269.216 848.87 -157.451 851.012 -96.8729 854.977C-71.4979 856.522 -45.6117 854.007 -20.1818 849.524C47.6148 837.378 110.349 796.411 100.463 721.535C95.6665 685.806 92.8577 656.503 105.076 628.489C110.335 616.275 118.491 604.387 130.348 592.179C153.233 568.123 181.944 548.441 203.307 523.369Z" stroke="#0058E1" stroke-opacity="0.1" stroke-width="3.67939" stroke-miterlimit="10" mask="url(#path-10-outside-10_176_475)"/>
<mask id="path-11-outside-11_176_475" maskUnits="userSpaceOnUse" x="-420.301" y="102.906" width="708.876" height="813.591" fill="black">
<rect fill="white" x="-420.301" y="102.906" width="708.876" height="813.591"/>
<path d="M226.004 527.151C242.732 508.214 256.407 483.803 251.094 458.732C239.075 402.398 147.931 373.24 102.211 351.933C61.6002 333.341 9.16838 314.046 -23.556 280.433C-29.8388 274.09 -35.2919 267.388 -39.655 260.019C-57.2699 231.99 -52.5869 199.748 -77.816 173.235C-103.045 146.723 -179.419 129.201 -235.091 148.908C-235.921 149.267 -236.49 149.316 -237.32 149.674C-258.16 157.491 -270.945 168.918 -280.907 179.815C-312.615 214.67 -331.409 259.6 -314.267 305.454C-312.736 309.911 -314.622 314.663 -318.761 319.896C-337.375 343.585 -403.367 373.359 -397.803 394.68C-382.211 455.869 -295.714 504.359 -298.58 567.711C-300.954 620.12 -278.859 663.54 -268.802 713.732C-263.44 739.373 -329.83 797.865 -319.701 822.236C-294.069 883.422 -170.555 885.412 -104.209 889.742C-75.938 891.611 -47.5139 888.591 -19.8307 883.627C54.4657 870.348 124.024 825.351 112.647 743.147C107.272 704.025 104.242 672.16 117.972 641.72C123.728 628.604 132.64 615.503 145.538 602.058C170.789 575.503 202.25 554.438 226.004 527.151Z"/>
</mask>
<path d="M226.004 527.151C242.732 508.214 256.407 483.803 251.094 458.732C239.075 402.398 147.931 373.24 102.211 351.933C61.6002 333.341 9.16838 314.046 -23.556 280.433C-29.8388 274.09 -35.2919 267.388 -39.655 260.019C-57.2699 231.99 -52.5869 199.748 -77.816 173.235C-103.045 146.723 -179.419 129.201 -235.091 148.908C-235.921 149.267 -236.49 149.316 -237.32 149.674C-258.16 157.491 -270.945 168.918 -280.907 179.815C-312.615 214.67 -331.409 259.6 -314.267 305.454C-312.736 309.911 -314.622 314.663 -318.761 319.896C-337.375 343.585 -403.367 373.359 -397.803 394.68C-382.211 455.869 -295.714 504.359 -298.58 567.711C-300.954 620.12 -278.859 663.54 -268.802 713.732C-263.44 739.373 -329.83 797.865 -319.701 822.236C-294.069 883.422 -170.555 885.412 -104.209 889.742C-75.938 891.611 -47.5139 888.591 -19.8307 883.627C54.4657 870.348 124.024 825.351 112.647 743.147C107.272 704.025 104.242 672.16 117.972 641.72C123.728 628.604 132.64 615.503 145.538 602.058C170.789 575.503 202.25 554.438 226.004 527.151Z" stroke="#0058E1" stroke-opacity="0.1" stroke-width="3.67939" stroke-miterlimit="10" mask="url(#path-11-outside-11_176_475)"/>
<mask id="path-12-outside-12_176_475" maskUnits="userSpaceOnUse" x="-457.211" y="68.9128" width="774.314" height="884.493" fill="black">
<rect fill="white" x="-457.211" y="68.9128" width="774.314" height="884.493"/>
<path d="M248.706 530.935C267.02 510.427 282.492 483.567 276.723 456.527C263.693 395.117 164.283 363.228 114.404 340.271C70.2055 319.98 13.0468 299.084 -23.0792 262.609C-29.6958 255.721 -35.7673 248.498 -40.7735 240.324C-60.0571 209.571 -54.7408 174.692 -82.4683 145.813C-109.887 117.194 -193.29 97.9824 -253.965 119.554C-254.794 119.913 -255.624 120.271 -256.478 120.344C-279.262 128.903 -293.113 141.282 -304.141 153.131C-338.76 190.818 -359.228 239.622 -340.58 289.648C-338.74 294.366 -340.862 299.712 -345.546 305.278C-366.29 330.871 -438.969 362.942 -432.973 385.947C-415.516 452.139 -320.63 504.783 -323.909 573.334C-326.721 630.657 -302.574 677.915 -291.271 732.59C-285.713 760.509 -358.519 824.43 -347.625 851.029C-319.795 917.763 -184.249 919.578 -111.85 924.247C-80.9918 926.181 -49.9803 923.225 -19.759 917.756C61.0372 903.344 137.16 854.627 124.811 764.474C119.142 721.936 115.917 687.792 130.541 654.407C136.767 640.103 146.46 626.074 160.424 611.678C188.375 583.169 222.561 560.435 248.706 530.935Z"/>
</mask>
<path d="M248.706 530.935C267.02 510.427 282.492 483.567 276.723 456.527C263.693 395.117 164.283 363.228 114.404 340.271C70.2055 319.98 13.0468 299.084 -23.0792 262.609C-29.6958 255.721 -35.7673 248.498 -40.7735 240.324C-60.0571 209.571 -54.7408 174.692 -82.4683 145.813C-109.887 117.194 -193.29 97.9824 -253.965 119.554C-254.794 119.913 -255.624 120.271 -256.478 120.344C-279.262 128.903 -293.113 141.282 -304.141 153.131C-338.76 190.818 -359.228 239.622 -340.58 289.648C-338.74 294.366 -340.862 299.712 -345.546 305.278C-366.29 330.871 -438.969 362.942 -432.973 385.947C-415.516 452.139 -320.63 504.783 -323.909 573.334C-326.721 630.657 -302.574 677.915 -291.271 732.59C-285.713 760.509 -358.519 824.43 -347.625 851.029C-319.795 917.763 -184.249 919.578 -111.85 924.247C-80.9918 926.181 -49.9803 923.225 -19.759 917.756C61.0372 903.344 137.16 854.627 124.811 764.474C119.142 721.936 115.917 687.792 130.541 654.407C136.767 640.103 146.46 626.074 160.424 611.678C188.375 583.169 222.561 560.435 248.706 530.935Z" stroke="#0058E1" stroke-opacity="0.1" stroke-width="3.67939" stroke-miterlimit="10" mask="url(#path-12-outside-12_176_475)"/>
<mask id="path-13-outside-13_176_475" maskUnits="userSpaceOnUse" x="-493.225" y="35.4444" width="838.756" height="955.309" fill="black">
<rect fill="white" x="-493.225" y="35.4444" width="838.756" height="955.309"/>
<path d="M271.405 534.718C291.305 512.64 308.314 483.639 302.039 454.061C288.259 387.265 180.322 352.955 126.571 328.323C78.8081 306.618 16.6372 284.146 -22.3455 244.475C-29.5805 237.066 -35.9858 229.299 -41.6104 220.604C-62.5383 187.41 -56.9217 149.351 -86.8384 118.365C-116.755 87.3794 -206.594 66.7142 -272.581 89.8907C-273.41 90.2489 -274.24 90.6072 -275.094 90.6807C-299.538 99.9555 -314.739 113.311 -326.807 126.397C-364.029 167.177 -386.48 219.593 -366.326 273.793C-364.437 279.08 -366.843 284.45 -371.763 290.611C-394.638 318.108 -473.695 352.736 -467.292 377.14C-448.23 448.644 -344.41 505.108 -348.362 579.167C-351.611 641.404 -325.104 692.762 -313.124 751.968C-307.086 782.14 -386.569 851.799 -374.649 880.318C-344.335 952.574 -197.067 953.955 -118.875 959.273C-85.4051 961.555 -51.8558 958.094 -18.8117 952.095C68.4844 936.55 151.456 884.088 137.591 786.321C131.344 740.39 128.183 703.66 144.034 667.875C151.017 652.358 161.206 637.426 176.21 621.792C206.243 590.81 242.869 566.432 271.405 534.718Z"/>
</mask>
<path d="M271.405 534.718C291.305 512.64 308.314 483.639 302.039 454.061C288.259 387.265 180.322 352.955 126.571 328.323C78.8081 306.618 16.6372 284.146 -22.3455 244.475C-29.5805 237.066 -35.9858 229.299 -41.6104 220.604C-62.5383 187.41 -56.9217 149.351 -86.8384 118.365C-116.755 87.3794 -206.594 66.7142 -272.581 89.8907C-273.41 90.2489 -274.24 90.6072 -275.094 90.6807C-299.538 99.9555 -314.739 113.311 -326.807 126.397C-364.029 167.177 -386.48 219.593 -366.326 273.793C-364.437 279.08 -366.843 284.45 -371.763 290.611C-394.638 318.108 -473.695 352.736 -467.292 377.14C-448.23 448.644 -344.41 505.108 -348.362 579.167C-351.611 641.404 -325.104 692.762 -313.124 751.968C-307.086 782.14 -386.569 851.799 -374.649 880.318C-344.335 952.574 -197.067 953.955 -118.875 959.273C-85.4051 961.555 -51.8558 958.094 -18.8117 952.095C68.4844 936.55 151.456 884.088 137.591 786.321C131.344 740.39 128.183 703.66 144.034 667.875C151.017 652.358 161.206 637.426 176.21 621.792C206.243 590.81 242.869 566.432 271.405 534.718Z" stroke="#0058E1" stroke-opacity="0.1" stroke-width="3.67939" stroke-miterlimit="10" mask="url(#path-13-outside-13_176_475)"/>
<mask id="path-14-outside-14_176_475" maskUnits="userSpaceOnUse" x="-529.75" y="2.8804" width="904.109" height="1025.21" fill="black">
<rect fill="white" x="-529.75" y="2.8804" width="904.109" height="1025.21"/>
<path d="M294.102 538.501C315.873 514.827 334.11 483.426 327.663 451.855C312.872 379.983 196.669 342.943 138.76 316.661C87.4088 293.257 20.5109 269.183 -21.8488 226.934C-29.7023 219.005 -36.7506 210.433 -42.709 201.193C-65.281 165.559 -59.0556 124.579 -91.4708 91.2267C-123.577 58.1348 -220.445 35.7798 -291.434 60.8211C-292.264 61.1793 -293.378 61.5621 -294.208 61.9204C-320.62 71.6515 -336.886 85.9592 -349.996 100.282C-390.129 143.894 -414.231 200.468 -392.619 258.271C-390.706 263.843 -393.063 269.783 -398.527 276.277C-423.249 305.655 -509.277 342.603 -502.133 368.952C-481.206 445.458 -368.997 506.077 -373.338 585.619C-377 653.055 -348.181 707.943 -335.239 771.655C-328.72 804.081 -414.905 879.193 -402.219 909.94C-369.707 987.745 -210.407 988.95 -126.187 994.322C-90.1295 996.669 -54.0174 992.987 -18.4107 986.768C75.3853 970.09 164.896 913.623 150.11 808.477C143.283 759.155 139.901 719.862 156.981 681.676C164.459 665.256 175.38 648.827 191.734 632.217C223.825 598.476 263.175 572.429 294.102 538.501Z"/>
</mask>
<path d="M294.102 538.501C315.873 514.827 334.11 483.426 327.663 451.855C312.872 379.983 196.669 342.943 138.76 316.661C87.4088 293.257 20.5109 269.183 -21.8488 226.934C-29.7023 219.005 -36.7506 210.433 -42.709 201.193C-65.281 165.559 -59.0556 124.579 -91.4708 91.2267C-123.577 58.1348 -220.445 35.7798 -291.434 60.8211C-292.264 61.1793 -293.378 61.5621 -294.208 61.9204C-320.62 71.6515 -336.886 85.9592 -349.996 100.282C-390.129 143.894 -414.231 200.468 -392.619 258.271C-390.706 263.843 -393.063 269.783 -398.527 276.277C-423.249 305.655 -509.277 342.603 -502.133 368.952C-481.206 445.458 -368.997 506.077 -373.338 585.619C-377 653.055 -348.181 707.943 -335.239 771.655C-328.72 804.081 -414.905 879.193 -402.219 909.94C-369.707 987.745 -210.407 988.95 -126.187 994.322C-90.1295 996.669 -54.0174 992.987 -18.4107 986.768C75.3853 970.09 164.896 913.623 150.11 808.477C143.283 759.155 139.901 719.862 156.981 681.676C164.459 665.256 175.38 648.827 191.734 632.217C223.825 598.476 263.175 572.429 294.102 538.501Z" stroke="#0058E1" stroke-opacity="0.1" stroke-width="3.67939" stroke-miterlimit="10" mask="url(#path-14-outside-14_176_475)"/>
<mask id="path-15-outside-15_176_475" maskUnits="userSpaceOnUse" x="-566.106" y="-31.2321" width="968.551" height="1096.03" fill="black">
<rect fill="white" x="-566.106" y="-31.2321" width="968.551" height="1096.03"/>
<path d="M316.802 542.284C340.158 517.04 359.932 483.499 352.981 449.389C337.439 372.132 212.709 332.67 150.642 304.738C95.7271 279.92 24.1018 254.245 -21.3993 208.825C-29.8713 200.375 -37.2533 191.258 -43.8547 181.213C-68.3557 143.164 -61.5208 99.2623 -96.1496 63.5191C-130.469 28.0361 -234.319 4.56083 -310.335 31.1822C-311.449 31.5649 -312.279 31.9232 -313.393 32.306C-341.75 42.7781 -359.081 58.0381 -372.971 73.2888C-416.016 119.733 -441.792 180.18 -418.674 242.156C-416.451 247.988 -419.329 254.546 -425.054 261.35C-451.906 292.632 -544.311 332.137 -536.76 359.885C-513.944 441.679 -393.37 506.167 -398.124 590.907C-402.224 663.257 -371.329 722.269 -357.426 790.488C-350.426 825.167 -443.597 905.757 -429.861 938.709C-395.151 1022.06 -223.818 1023.09 -133.829 1028.83C-95.1853 1031.24 -56.226 1027.31 -18.3659 1020.61C82.2145 1002.78 178.005 942.613 161.963 829.544C154.582 777.114 151.24 734.949 169.522 694.078C177.472 676.47 189.173 659.113 206.569 641.266C241.384 605.857 283.484 578.426 316.802 542.284Z"/>
</mask>
<path d="M316.802 542.284C340.158 517.04 359.932 483.499 352.981 449.389C337.439 372.132 212.709 332.67 150.642 304.738C95.7271 279.92 24.1018 254.245 -21.3993 208.825C-29.8713 200.375 -37.2533 191.258 -43.8547 181.213C-68.3557 143.164 -61.5208 99.2623 -96.1496 63.5191C-130.469 28.0361 -234.319 4.56083 -310.335 31.1822C-311.449 31.5649 -312.279 31.9232 -313.393 32.306C-341.75 42.7781 -359.081 58.0381 -372.971 73.2888C-416.016 119.733 -441.792 180.18 -418.674 242.156C-416.451 247.988 -419.329 254.546 -425.054 261.35C-451.906 292.632 -544.311 332.137 -536.76 359.885C-513.944 441.679 -393.37 506.167 -398.124 590.907C-402.224 663.257 -371.329 722.269 -357.426 790.488C-350.426 825.167 -443.597 905.757 -429.861 938.709C-395.151 1022.06 -223.818 1023.09 -133.829 1028.83C-95.1853 1031.24 -56.226 1027.31 -18.3659 1020.61C82.2145 1002.78 178.005 942.613 161.963 829.544C154.582 777.114 151.24 734.949 169.522 694.078C177.472 676.47 189.173 659.113 206.569 641.266C241.384 605.857 283.484 578.426 316.802 542.284Z" stroke="#0058E1" stroke-opacity="0.1" stroke-width="3.67939" stroke-miterlimit="10" mask="url(#path-15-outside-15_176_475)"/>
<mask id="path-16-outside-16_176_475" maskUnits="userSpaceOnUse" x="-601.805" y="-64.1398" width="1032.91" height="1165.85" fill="black">
<rect fill="white" x="-601.805" y="-64.1398" width="1032.91" height="1165.85"/>
<path d="M339.503 546.068C364.706 518.943 385.731 483.287 378.608 447.184C362.056 364.851 229.06 322.658 163.12 293.052C104.617 266.534 27.9791 239.283 -20.3542 190.951C-29.4446 181.981 -37.4452 172.343 -44.0956 161.728C-70.2653 120.955 -62.7968 74.4172 -99.924 36.3075C-136.457 -1.56657 -247.311 -26.4468 -328.355 1.75459C-329.469 2.13734 -330.584 2.52018 -331.414 2.87843C-361.714 14.0915 -380.111 30.3038 -395.067 46.5067C-440.714 96.0431 -468.474 160.103 -443.849 226.252C-441.577 232.654 -444.43 239.497 -450.985 246.658C-479.944 280.129 -579.059 321.647 -570.791 351.053C-546.371 438.159 -416.864 506.468 -422.291 596.717C-426.828 673.981 -393.597 736.807 -378.733 809.533C-371.251 846.465 -471.125 932.508 -456.363 967.379C-419.169 1056.25 -236.113 1056.85 -140.048 1063.21C-98.7918 1065.97 -57.2697 1061.82 -16.8716 1054.62C90.2087 1035.65 192.563 971.766 175.575 851.033C167.615 795.211 164.337 750.459 183.562 707.212C191.984 688.416 204.465 670.132 222.926 651.332C258.969 613.522 303.794 584.423 339.503 546.068Z"/>
</mask>
<path d="M339.503 546.068C364.706 518.943 385.731 483.287 378.608 447.184C362.056 364.851 229.06 322.658 163.12 293.052C104.617 266.534 27.9791 239.283 -20.3542 190.951C-29.4446 181.981 -37.4452 172.343 -44.0956 161.728C-70.2653 120.955 -62.7968 74.4172 -99.924 36.3075C-136.457 -1.56657 -247.311 -26.4468 -328.355 1.75459C-329.469 2.13734 -330.584 2.52018 -331.414 2.87843C-361.714 14.0915 -380.111 30.3038 -395.067 46.5067C-440.714 96.0431 -468.474 160.103 -443.849 226.252C-441.577 232.654 -444.43 239.497 -450.985 246.658C-479.944 280.129 -579.059 321.647 -570.791 351.053C-546.371 438.159 -416.864 506.468 -422.291 596.717C-426.828 673.981 -393.597 736.807 -378.733 809.533C-371.251 846.465 -471.125 932.508 -456.363 967.379C-419.169 1056.25 -236.113 1056.85 -140.048 1063.21C-98.7918 1065.97 -57.2697 1061.82 -16.8716 1054.62C90.2087 1035.65 192.563 971.766 175.575 851.033C167.615 795.211 164.337 750.459 183.562 707.212C191.984 688.416 204.465 670.132 222.926 651.332C258.969 613.522 303.794 584.423 339.503 546.068Z" stroke="#0058E1" stroke-opacity="0.1" stroke-width="3.67939" stroke-miterlimit="10" mask="url(#path-16-outside-16_176_475)"/>
<mask id="path-17-outside-17_176_475" maskUnits="userSpaceOnUse" x="-638.714" y="-97.9183" width="1097.35" height="1236.67" fill="black">
<rect fill="white" x="-638.714" y="-97.9183" width="1097.35" height="1236.67"/>
<path d="M-16.8043 1088.75C96.7513 1068.36 205.954 1000.73 187.735 872.36C175.543 787.357 173.789 726.985 238.093 660.927C276.836 621.164 324.385 590.395 362.201 549.851C388.989 521.156 411.552 483.359 403.923 444.718C386.646 357.284 244.813 312.41 175 281.129C101.289 247.889 0.519412 213.536 -45.5279 141.773C-73.3418 98.5588 -65.5489 49.1252 -104.89 8.62435C-144.231 -31.8764 -264.441 -58.8198 -350.601 -26.7361C-382.846 -14.782 -402.592 2.40694 -418.328 19.5375C-466.887 71.9061 -496.322 139.839 -470.5 209.901C-456.99 246.888 -616.701 304.234 -605.99 342.035C-579.99 434.168 -441.808 506.607 -447.624 602.339C-452.599 684.517 -417.292 751.467 -401.466 828.7C-393.504 867.885 -500.054 959.666 -484.552 996.482C-445.159 1090.9 -249.787 1091.3 -148.238 1098.05C-104.11 1100.85 -59.7405 1096.46 -16.8043 1088.75Z"/>
</mask>
<path d="M-16.8043 1088.75C96.7513 1068.36 205.954 1000.73 187.735 872.36C175.543 787.357 173.789 726.985 238.093 660.927C276.836 621.164 324.385 590.395 362.201 549.851C388.989 521.156 411.552 483.359 403.923 444.718C386.646 357.284 244.813 312.41 175 281.129C101.289 247.889 0.519412 213.536 -45.5279 141.773C-73.3418 98.5588 -65.5489 49.1252 -104.89 8.62435C-144.231 -31.8764 -264.441 -58.8198 -350.601 -26.7361C-382.846 -14.782 -402.592 2.40694 -418.328 19.5375C-466.887 71.9061 -496.322 139.839 -470.5 209.901C-456.99 246.888 -616.701 304.234 -605.99 342.035C-579.99 434.168 -441.808 506.607 -447.624 602.339C-452.599 684.517 -417.292 751.467 -401.466 828.7C-393.504 867.885 -500.054 959.666 -484.552 996.482C-445.159 1090.9 -249.787 1091.3 -148.238 1098.05C-104.11 1100.85 -59.7405 1096.46 -16.8043 1088.75Z" stroke="#0058E1" stroke-opacity="0.1" stroke-width="3.67939" stroke-miterlimit="10" mask="url(#path-17-outside-17_176_475)"/>
</svg>
